# AST/ASF file generated using VICON BodyLanguage
# -----------------------------------------------
:version 1.10
:name VICON
:units
  mass 1.0
  length 0.45
  angle deg
:documentation
   .ast/.asf automatically generated from VICON data using
   VICON BodyBuilder and BodyLanguage model FoxedUp or BRILLIANT.MOD
:root
   order TX TY TZ RX RY RZ
   axis XYZ
   position 0 0 0  
   orientation 0 0 0 
:bonedata
  begin
     id 1 
     name lhipjoint
     direction 0.603808 -0.713975 0.35448 
     length 2.2025 
     axis 0 0 0  XYZ
  end
  begin
     id 2 
     name lfemur
     direction 0.34202 -0.939693 0  
     length 6.55877  
     axis 0 0 20  XYZ
    dof rx ry rz
    limits (-160.0 20.0)
           (-70.0 70.0)
           (-60.0 70.0)
  end
  begin
     id 3 
     name ltibia
     direction 0.34202 -0.939693 0   
     length 6.80302   
     axis 0 0 20   XYZ
    dof rx
    limits (-10.0 170.0)
  end
  begin
     id 4 
     name lfoot
     direction 0.091848 -0.25235 0.963267   
     length 2.03446   
     axis -90 7.62852e-016 20   XYZ
    dof rx rz
    limits (-45.0 90.0)
           (-70.0 20.0)
  end
  begin
     id 5 
     name ltoes
     direction 1.53608e-011 -4.21925e-011 1   
     length 1.02033   
     axis -90 7.62852e-016 20   XYZ
    dof rx
    limits (-90.0 20.0)
  end
  begin
     id 6 
     name rhipjoint
     direction -0.587285 -0.724947 0.359928   
     length 2.16916  
     axis 0 0 0  XYZ 
  end
  begin
     id 7 
     name rfemur
     direction -0.34202 -0.939693 0   
     length 6.43173   
     axis 0 0 -20   XYZ
    dof rx ry rz
    limits (-160.0 20.0)
           (-70.0 70.0)
           (-70.0 60.0)
  end
  begin
     id 8 
     name rtibia
     direction -0.34202 -0.939693 0   
     length 6.70662   
     axis 0 0 -20   XYZ
    dof rx
    limits (-10.0 170.0)
 end
 begin
     id 9 
     name rfoot
     direction -0.11854 -0.325686 0.938018   
     length 2.0773  
     axis -90 -7.62852e-016 -20   XYZ
    dof rx rz
    limits (-45.0 90.0)
           (-20.0 70.0)
  end
  begin
     id 10 
     name rtoes
     direction -1.53547e-011 -4.21838e-011 1   
     length 1.03267   
     axis -90 -7.62852e-016 -20   XYZ
    dof rx
    limits (-90.0 20.0)
  end
  begin
     id 11 
     name lowerback
     direction -0.0286554 0.999539 0.0100613   
     length 2.08751   
     axis 0 0 0   XYZ
    dof rx ry rz
    limits (-20.0 45.0)
           (-30.0 30.0)
           (-30.0 30.0)
  end
  begin
     id 12 
     name upperback
     direction 0.0227093 0.999705 -0.00860929   
     length 2.08517   
     axis 0 0 0   XYZ
    dof rx ry rz
    limits (-20.0 45.0)
           (-30.0 30.0)
           (-30.0 30.0)
  end
  begin
     id 13 
     name thorax
     direction 0.0351627 0.999285 -0.013892   
     length 2.08412   
     axis 0 0 0   XYZ
    dof rx ry rz
    limits (-20.0 45.0)
           (-30.0 30.0)
           (-30.0 30.0)
  end
  begin
     id 14 
     name lowerneck
     direction -0.0696283 0.997344 0.0213922   
     length 1.44164   
     axis 0 0 0   XYZ
    dof rx ry rz
    limits (-20.0 45.0)
           (-30.0 30.0)
           (-30.0 30.0)
  end
  begin
     id 15 
     name upperneck
     direction 0.0531 0.990412 -0.127531   
     length 1.45022   
     axis 0 0 0   XYZ
    dof rx ry rz
    limits (-20.0 45.0)
           (-30.0 30.0)
           (-30.0 30.0)
  end
  begin
     id 16
     name head
     direction 0.0188154 0.998548 -0.0504727  
     length 1.45845  
     axis 0 0 0   XYZ
    dof rx ry rz
    limits (-20.0 45.0)
           (-30.0 30.0)
           (-30.0 30.0)
  end
  begin
     id 17 
     name lclavicle
     direction 0.961559 0.260051 0.088188  
     length 2.86057  
     axis 0 0 0   XYZ
    dof ry rz
    limits (-20.0 10.0)
           (0.0 20.0)
  end
  begin
     id 18 
     name lhumerus
     direction 1 -4.48959e-011 2.88185e-027   
     length 4.36901   
     axis 180 -30 -90   XYZ
    dof rx ry rz
    limits (-60.0 90.0)
           (-90.0 90.0)
           (-90.0 90.0)
  end
  begin
     id 19
     name lradius
     direction 1 -4.48965e-011 -3.92618e-028   
     length 3.21737   
     axis 180 -30 -90   XYZ
    dof rx
    limits (-10.0 170.0)
  end
  begin
     id 20
     name lwrist
     direction 1 -4.49037e-011 2.57246e-027   
     length 1.60869   
     axis -1.61769e-015 90 90   XYZ
    dof ry
    limits (-180.0 0.0)
 end
  begin
     id 21 
     name lhand
     direction 1 -4.48807e-011 5.12958e-027   
     length 0.564313   
     axis -3.27988e-015 90 90   XYZ
    dof rx rz
    limits (-90.0 90.0)
           (-45.0 45.0)
  end
  begin
     id 22 
     name lfingers
     direction 1 -4.48879e-011 1.02687e-026   
     length 0.454963   
     axis -6.5598e-015 90 90   XYZ
    dof rx
    limits (0.0 90.0)
  end
  begin
     id 23
     name lthumb
     direction 0.707107 -6.3475e-011 0.707107   
     length 0.653239   
     axis -90 45 2.19363e-014   XYZ
    dof rx rz
    limits (-45.0 45.0)
           (-45.0 45.0)
  end
  begin
     id 24 
     name rclavicle
     direction -0.954677 0.253915 0.155304   
     length 3.11497  
     axis 0 0 0   XYZ 
    dof ry rz
    limits (-10.0 20.0)
           (-20.0 0.0)
  end
  begin
     id 25 
     name rhumerus
     direction -1 -4.48958e-011 -8.20169e-028  
     length 4.34118   
     axis 180 30 90   XYZ
    dof rx ry rz
    limits (-90.0 60.0)
           (-90.0 90.0)
           (-90.0 90.0)
  end
  begin
     id 26 
     name rradius
     direction -1 -4.48978e-011 1.5676e-027   
     length 3.09531   
     axis 180 30 90   XYZ
    dof rx
    limits (-10.0 170.0)
  end
  begin
     id 27 
     name rwrist
     direction -1 -4.49001e-011 2.57123e-027   
     length 1.54765   
     axis -1.61769e-015 -90 -90   XYZ
    dof ry
    limits (-180.0 0.0)
  end
  begin
     id 28
     name rhand
     direction -1 -4.48847e-011 5.13225e-027   
     length 0.597446   
     axis -3.27988e-015 -90 -90   XYZ
    dof rx rz
    limits (-90.0 90.0)
           (-45.0 45.0)
  end
  begin
     id 29
     name rfingers
     direction -1 -4.49094e-011 1.02974e-026   
     length 0.481677   
     axis -6.5598e-015 -90 -90   XYZ
    dof rx
    limits (0.0 90.0)
  end
  begin
     id 30
     name rthumb
     direction -0.707107 -6.34859e-011 0.707107   
     length 0.691594   
     axis -90 -45 -2.19363e-014   XYZ
    dof rx rz
    limits (-45.0 45.0)
           (-45.0 45.0)
  end
:hierarchy
  begin
    root lhipjoint rhipjoint lowerback
    lhipjoint lfemur
    lfemur ltibia
    ltibia lfoot
    lfoot ltoes
    rhipjoint rfemur
    rfemur rtibia
    rtibia rfoot
    rfoot rtoes
    lowerback upperback
    upperback thorax
    thorax lowerneck lclavicle rclavicle
    lowerneck upperneck
    upperneck head
    lclavicle lhumerus
    lhumerus lradius
    lradius lwrist
    lwrist lhand lthumb
    lhand lfingers
    rclavicle rhumerus
    rhumerus rradius
    rradius rwrist
    rwrist rhand rthumb
    rhand rfingers
  end

#!OML:ASF I:\Acrobat_Osman\acrobat\cartwheel_test 2\Patient 1\Session 1\acrobat.ASF
:FULLY-SPECIFIED
:DEGREES
737
root 16.8609 15.0142 7.73023 362.668 143.738 -706.792
lowerback -1.41247 2.57744 0.45039
upperback 1.8543 3.47302 -0.78446
thorax 2.76946 1.76156 -0.922434
lowerneck -6.25624 10.6699 1.3216
upperneck 13.173 16.1944 -7.50899
head 5.74969 7.7283 -1.34166
rclavicle -8.86455e-014 6.36111e-015
rhumerus -69.2993 15.3107 304.516
rradius 100.034
rwrist -372.868
rhand -22.3795 34.1874
rfingers 7.12502
rthumb 4.04235 4.24597
lclavicle -8.86455e-014 6.36111e-015
lhumerus -15.1671 -38.5237 74.5488
lradius 121.405
lwrist 36.9011
lhand -23.1361 42.9993
lfingers 7.12502
lthumb 3.31165 72.9533
rfemur -7.20218 -5.35747 26.7949
rtibia 40.3212
rfoot -35.019 -22.4992
rtoes 5.93633
lfemur -45.2898 18.306 -11.7589
ltibia 76.6086
lfoot -11.8479 27.3649
ltoes -12.5019
738
root 17.0108 14.9775 7.68949 362.653 151.945 -707.126
lowerback -0.726725 3.00196 0.0592986
upperback 2.11021 4.07115 -0.905292
thorax 2.64199 2.0624 -0.835934
lowerneck -5.40767 9.73173 1.00366
upperneck 13.2471 14.7913 -6.35979
head 5.44844 7.14163 -1.12192
rclavicle -3.80673e-014 5.725e-014
rhumerus -69.3231 15.6331 304.483
rradius 98.5575
rwrist -370.964
rhand -23.4357 32.2001
rfingers 7.12502
rthumb 3.02236 2.24181
lclavicle -3.80673e-014 5.725e-014
lhumerus -15.6889 -38.1548 72.167
lradius 121.203
lwrist 37.4233
lhand -23.7887 43.7294
lfingers 7.12502
lthumb 2.68143 73.6923
rfemur -7.32408 -9.26135 27.7159
rtibia 41.0119
rfoot -36.9869 -24.7876
rtoes 5.44709
lfemur -46.9287 17.9258 -12.8758
ltibia 77.313
lfoot -11.1692 28.2243
ltoes -12.5067
739
root 17.1622 14.9449 7.62771 362.846 160.004 -707.324
lowerback -0.297354 3.25222 -0.185872
upperback 2.36495 4.43067 -0.927114
thorax 2.65275 2.24618 -0.728563
lowerneck -4.81206 8.71405 0.359314
upperneck 13.2995 13.2411 -4.84809
head 5.15482 6.47221 -0.725161
rclavicle 4.17448e-014 2.38542e-014
rhumerus -68.2054 16.5898 304.48
rradius 97.4209
rwrist -370.256
rhand -22.341 35.4472
rfingers 7.12502
rthumb 4.07952 5.50648
lclavicle 4.17448e-014 2.38542e-014
lhumerus -16.1457 -37.0967 69.2782
lradius 120.81
lwrist 36.4863
lhand -23.6743 43.298
lfingers 7.12502
lthumb 2.7919 73.2595
rfemur -7.68631 -13.0502 28.7732
rtibia 41.6841
rfoot -39.214 -26.518
rtoes 4.83692
lfemur -48.2595 17.081 -13.7876
ltibia 77.4662
lfoot -9.65074 28.268
ltoes -12.0865
740
root 17.3088 14.9123 7.54681 363.186 167.7 -707.49
lowerback -0.0237635 3.48954 -0.334076
upperback 2.47254 4.7643 -0.92428
thorax 2.60249 2.4163 -0.648958
lowerneck -4.68115 7.50485 -0.574478
upperneck 13.8999 11.465 -2.87956
head 5.09663 5.6891 -0.102695
rclavicle -4.01545e-014 -6.67916e-014
rhumerus -66.2944 17.457 304.728
rradius 96.2291
rwrist -370.021
rhand -22.8656 35.7085
rfingers 7.12502
rthumb 3.57294 5.75869
lclavicle -4.01545e-014 -6.67916e-014
lhumerus -16.7665 -35.0803 67.2532
lradius 120.67
lwrist 35.6887
lhand -23.5927 43.382
lfingers 7.12502
lthumb 2.87067 73.3424
rfemur -8.25767 -16.1438 29.8826
rtibia 42.2947
rfoot -41.2054 -28.1015
rtoes 3.19442
lfemur -49.2588 16.0495 -14.5391
ltibia 77.085
lfoot -8.66612 27.2976
ltoes -12.5182
741
root 17.4477 14.8829 7.4545 363.568 174.912 -707.791
lowerback -0.0129435 3.80482 -0.447229
upperback 2.68956 5.21763 -1.03007
thorax 2.82585 2.65101 -0.674136
lowerneck -4.57974 6.90328 -1.51562
upperneck 14.1584 9.10347 -0.933532
head 4.98267 4.09778 0.446248
rclavicle 2.54444e-014 3.18055e-015
rhumerus -63.3919 17.595 305.493
rradius 94.8069
rwrist -369.564
rhand -23.554 36.6705
rfingers 7.12502
rthumb 2.90809 6.7106
lclavicle 2.54444e-014 3.18055e-015
lhumerus -17.1534 -32.0847 65.872
lradius 120.365
lwrist 35.9144
lhand -24.7345 43.793
lfingers 7.12502
lthumb 1.76795 73.7654
rfemur -8.7962 -17.7809 30.8454
rtibia 42.8499
rfoot -42.6031 -29.7082
rtoes 0.222203
lfemur -49.8152 14.842 -15.1022
ltibia 76.3682
lfoot -9.68286 25.7724
ltoes -12.867
742
root 17.5782 14.8663 7.34448 363.973 181.491 -708.293
lowerback 0.124181 4.35383 -0.652588
upperback 2.82988 5.73963 -1.18308
thorax 2.89486 2.81728 -0.7132
lowerneck -4.30939 5.32563 -2.26845
upperneck 13.9976 6.89249 0.478294
head 4.81144 3.09436 0.866922
rclavicle -1.11319e-014 -2.70347e-014
rhumerus -60.1034 16.5963 307.119
rradius 93.3785
rwrist -368.296
rhand -23.5245 37.8216
rfingers 7.12502
rthumb 2.93653 7.86203
lclavicle -1.11319e-014 -2.70347e-014
lhumerus -17.7241 -28.9004 64.1502
lradius 120.331
lwrist 36.0088
lhand -25.4517 43.8472
lfingers 7.12502
lthumb 1.07529 73.8242
rfemur -8.96622 -18.0094 31.4189
rtibia 43.3295
rfoot -43.069 -30.6973
rtoes -3.87323
lfemur -50.4722 13.8632 -16.0423
ltibia 75.2651
lfoot -11.0321 19.9707
ltoes -24.8723
743
root 17.6997 14.8385 7.23009 364.363 187.767 -709.038
lowerback 0.371483 4.62636 -1.00833
upperback 3.09364 6.09596 -1.2645
thorax 3.00464 2.98075 -0.601728
lowerneck -4.28337 3.84201 -3.15877
upperneck 13.7444 4.88764 1.48361
head 4.70597 2.15619 1.21487
rclavicle -7.51406e-014 -3.18055e-015
rhumerus -56.0651 16.601 308.987
rradius 92.8529
rwrist -368.175
rhand -23.4871 37.5147
rfingers 7.12502
rthumb 2.97274 7.5557
lclavicle -7.51406e-014 -3.18055e-015
lhumerus -18.6286 -24.9674 62.5706
lradius 120.557
lwrist 36.135
lhand -25.3374 43.5674
lfingers 7.12502
lthumb 1.18571 73.5439
rfemur -8.8471 -18.1098 31.5376
rtibia 43.7879
rfoot -42.2147 -31.5269
rtoes -9.94811
lfemur -51.2891 13.0281 -17.5654
ltibia 74.448
lfoot -12.3499 15.892
ltoes -30.9371
744
root 17.8165 14.8028 7.11334 364.787 194.013 -709.813
lowerback 0.760793 4.80908 -1.11119
upperback 3.42169 6.32288 -1.32361
thorax 3.12309 3.08429 -0.619301
lowerneck -4.33664 2.36074 -4.1206
upperneck 13.3716 2.92462 2.31967
head 4.61795 1.22577 1.53075
rclavicle -7.35503e-014 9.85972e-014
rhumerus -52.0725 14.8751 311.057
rradius 92.4128
rwrist -367.466
rhand -23.5639 35.9728
rfingers 7.12502
rthumb 2.89855 6.0128
lclavicle -7.35503e-014 9.85972e-014
lhumerus -19.523 -20.6812 60.961
lradius 120.459
lwrist 35.2656
lhand -23.8542 43.2247
lfingers 7.12502
lthumb 2.61817 73.1883
rfemur -8.75344 -18.6233 31.6468
rtibia 44.2372
rfoot -42.2401 -31.2158
rtoes -12.4996
lfemur -52.4988 12.3193 -19.5918
ltibia 74.0678
lfoot -13.4382 13.9549
ltoes -27.4603
745
root 17.9235 14.7717 6.98455 365.389 200.008 -710.452
lowerback 0.838539 4.92833 -1.04613
upperback 3.79126 6.47306 -1.15406
thorax 3.45108 3.15201 -0.467238
lowerneck -4.23954 0.967935 -5.43447
upperneck 12.7611 1.12451 3.05527
head 4.46174 0.353385 1.88037
rclavicle 1.23246e-014 1.11319e-014
rhumerus -47.9115 13.2318 313.471
rradius 92.3119
rwrist -366.94
rhand -23.9559 36.1877
rfingers 7.12502
rthumb 2.51999 6.22279
lclavicle 1.23246e-014 1.11319e-014
lhumerus -20.8948 -16.6771 59.9336
lradius 120.896
lwrist 34.8102
lhand -24.7402 43.7701
lfingers 7.12502
lthumb 1.76252 73.7425
rfemur -8.95944 -19.4197 32.0143
rtibia 44.7485
rfoot -41.8391 -30.7017
rtoes -14.991
lfemur -54.052 11.7353 -21.8521
ltibia 74.1039
lfoot -13.5453 13.1746
ltoes -25.1214
